<?xml version="1.0" encoding="UTF-8"?><svg id="Layer_1" xmlns="http://www.w3.org/2000/svg" viewBox="0 0 1000 1000"><defs><style>.cls-1{fill:#85808e;}</style></defs><path class="cls-1" d="M837.09,808.14h-42.84v-288.35c-.21-4.54-3.96-8.12-8.5-8.12s-8.29,3.58-8.5,8.12v288.35h-44.47v-252.52c-.21-4.54-3.96-8.12-8.5-8.12s-8.29,3.58-8.5,8.12v252.52h-44.47v-153.62c-.21-4.54-3.96-8.12-8.5-8.12s-8.29,3.58-8.5,8.12v153.59h-44.47v-134.8c-.21-4.55-3.96-8.12-8.5-8.12s-8.29,3.58-8.5,8.12v134.84h-44.47v-122.07c-.21-4.54-3.96-8.12-8.5-8.12s-8.29,3.58-8.5,8.12v122.06h-44.47v-153.62c-.21-4.54-3.96-8.12-8.5-8.12s-8.29,3.58-8.5,8.12v153.59h-44.47v-134.8c-.21-4.55-3.96-8.12-8.5-8.12s-8.29,3.58-8.5,8.12v134.84h-44.47v-110.13c.11-2.32-.75-4.59-2.35-6.27-1.6-1.68-3.83-2.63-6.15-2.63s-4.54,.95-6.15,2.63c-1.61,1.68-2.46,3.95-2.35,6.27v110.12h-44.47v-33.61c-.21-4.54-3.95-8.12-8.5-8.12s-8.29,3.58-8.5,8.12v33.61h-53.3l138.16-177.2h0c12.48,6.75,27.43,7.15,40.26,1.08,12.83-6.07,22-17.87,24.71-31.8h111.45c2.55,13.13,10.87,24.43,22.66,30.76,11.78,6.33,25.8,7.03,38.15,1.91,12.36-5.12,21.77-15.52,25.63-28.34,3.85-12.81,1.75-26.68-5.73-37.77l79.61-79.61c11.53,7.85,26.07,9.86,39.28,5.41,13.22-4.44,23.6-14.82,28.05-28.04,4.44-13.22,2.44-27.76-5.41-39.28l73.15-73.15c3.32-3.32,3.32-8.71,0-12.02-3.32-3.32-8.71-3.31-12.02,.01l-73.13,73.15c-11.52-7.85-26.06-9.86-39.28-5.41-13.22,4.44-23.6,14.82-28.04,28.04-4.44,13.22-2.44,27.75,5.41,39.28l-79.61,79.61c-12.4-8.38-28.18-9.98-42-4.25-13.83,5.73-23.86,18.02-26.69,32.71h-111.45c-2.62-13.51-11.34-25.06-23.62-31.28-12.28-6.22-26.75-6.41-39.19-.53-12.45,5.88-21.48,17.18-24.47,30.62-2.99,13.44,.4,27.5,9.18,38.11l-133.93,171.77V203.42l34.62,34.62c3.32,3.32,8.69,3.32,12.01,0,3.32-3.32,3.32-8.7,0-12.02l-46.88-46.88c-.92-3.81-4.33-6.49-8.25-6.49s-7.34,2.68-8.26,6.49l-46.88,46.88c-3.32,3.32-3.32,8.7,0,12.02,3.32,3.32,8.7,3.32,12.02,0l34.6-34.62V816.84c0,.15,0,.3,0,.46,0,.13,0,.26,0,.39,0,.13,0,.26,0,.39,0,.15,0,.29,0,.44v.32c.04,.16,.08,.32,.13,.48,.03,.1,.07,.2,.13,.3,0,.16,.11,.32,.18,.48,.07,.16,.11,.23,.16,.35l.2,.37c0,.14,.16,.27,.25,.4,.05,.1,.11,.2,.18,.28,0,.14,.2,.27,.28,.39l.21,.27h0c.09,.12,.19,.23,.3,.33l.27,.28,.3,.27,.35,.3h.1c.35,.27,.71,.51,1.1,.72,.35,.2,.73,.36,1.11,.49h.2c.38,.13,.76,.22,1.15,.28h.28c.39,.07,.78,.11,1.17,.11H837.09c2.32,.11,4.59-.74,6.27-2.35,1.68-1.6,2.63-3.83,2.63-6.15s-.95-4.55-2.63-6.15c-1.68-1.6-3.94-2.46-6.27-2.35v.18Zm-105.01-385.55c7.32,0,14.34,2.91,19.51,8.09,5.17,5.17,8.09,12.19,8.09,19.51s-2.91,14.34-8.09,19.52c-5.17,5.17-12.19,8.08-19.51,8.08s-14.34-2.91-19.52-8.08c-5.17-5.17-8.08-12.19-8.08-19.52,0-7.32,2.92-14.33,8.09-19.5,5.17-5.17,12.19-8.08,19.5-8.09h0Zm-141.52,141.52c7.32,0,14.34,2.91,19.51,8.09,5.17,5.17,8.09,12.19,8.09,19.51s-2.91,14.34-8.09,19.52c-5.17,5.17-12.19,8.08-19.51,8.08s-14.34-2.91-19.52-8.08c-5.17-5.17-8.08-12.19-8.08-19.52,.01-7.31,2.93-14.32,8.1-19.49,5.17-5.17,12.18-8.08,19.5-8.09v-.02Zm-199.04,0c7.32,0,14.34,2.91,19.51,8.09,5.18,5.17,8.09,12.19,8.09,19.51s-2.91,14.34-8.09,19.52c-5.17,5.17-12.19,8.08-19.51,8.08s-14.34-2.91-19.52-8.08c-5.17-5.17-8.08-12.19-8.08-19.52,.01-7.31,2.93-14.32,8.1-19.49,5.17-5.17,12.18-8.08,19.5-8.09v-.02Z"/></svg>